<svg width="52" height="51" viewBox="0 0 52 51" fill="none" xmlns="http://www.w3.org/2000/svg">
<path d="M31.4021 33.9895L34.4101 30.9842L47.1948 43.7561L44.1867 46.7614L31.4021 33.9895Z" fill="#616161"/>
<path d="M21.6387 4.25C17.1256 4.25 12.7975 6.04107 9.60629 9.22919C6.4151 12.4173 4.62231 16.7413 4.62231 21.25C4.62231 25.7587 6.4151 30.0827 9.60629 33.2708C12.7975 36.4589 17.1256 38.25 21.6387 38.25C26.1517 38.25 30.4799 36.4589 33.671 33.2708C36.8622 30.0827 38.655 25.7587 38.655 21.25C38.655 16.7413 36.8622 12.4173 33.671 9.22919C30.4799 6.04107 26.1517 4.25 21.6387 4.25Z" fill="#616161"/>
<path d="M34.8857 37.5498L37.8938 34.5445L47.1438 43.7854L44.1358 46.7907L34.8857 37.5498Z" fill="#37474F"/>
<path d="M21.6388 7.4375C17.9719 7.4375 14.4553 8.89274 11.8625 11.4831C9.26963 14.0734 7.81299 17.5867 7.81299 21.25C7.81299 24.9133 9.26963 28.4266 11.8625 31.0169C14.4553 33.6073 17.9719 35.0625 21.6388 35.0625C25.3056 35.0625 28.8222 33.6073 31.4151 31.0169C34.0079 28.4266 35.4646 24.9133 35.4646 21.25C35.4646 17.5867 34.0079 14.0734 31.4151 11.4831C28.8222 8.89274 25.3056 7.4375 21.6388 7.4375Z" fill="#64B5F6"/>
<path d="M28.977 15.0875C27.169 12.9625 24.5102 11.6875 21.6387 11.6875C18.7671 11.6875 16.1083 12.9625 14.3004 15.0875C13.8749 15.5125 13.9813 16.2563 14.4067 16.575C14.8321 17 15.5766 16.8938 15.8956 16.4688C17.3846 14.7688 19.4053 13.8125 21.6387 13.8125C23.8721 13.8125 25.8927 14.7688 27.3817 16.4688C27.5944 16.6813 27.9134 16.8938 28.2325 16.8938C28.4452 16.8938 28.7643 16.7875 28.8706 16.6813C29.296 16.2563 29.296 15.5125 28.977 15.0875Z" fill="#BBDEFB"/>
</svg>
