<svg id="Layer_1" data-name="Layer 1" xmlns="http://www.w3.org/2000/svg" xmlns:xlink="http://www.w3.org/1999/xlink" viewBox="0 0 24 24"><defs><style>.cls-1{fill:#fff;fill-rule:evenodd;}.cls-2{mask:url(#mask);}</style><mask id="mask" x="0" y="0" width="24" height="24" maskUnits="userSpaceOnUse"><g transform="translate(0 0)"><g id="b"><path id="a" class="cls-1" d="M17,20.39a1.9,1.9,0,0,1-.76-.15,3.48,3.48,0,0,1-1.71-2.38,5.89,5.89,0,0,0-2.39-3,7.6,7.6,0,0,1-2.32-2.53A6.26,6.26,0,0,1,9,9.39a5,5,0,0,1,10,0h2a6.92,6.92,0,0,0-7-7,6.92,6.92,0,0,0-7,7,8.28,8.28,0,0,0,1.07,3.9,9.53,9.53,0,0,0,2.85,3.15,4,4,0,0,1,1.71,2A5.44,5.44,0,0,0,15.36,22,4,4,0,0,0,21,18.39H19A2,2,0,0,1,17,20.39ZM7.64,3,6.22,1.61a11,11,0,0,0,0,15.56l1.41-1.41A9,9,0,0,1,7.64,3ZM11.5,9.39A2.5,2.5,0,1,0,14,6.89,2.5,2.5,0,0,0,11.5,9.39Z"/></g></g></mask></defs><title>hearing-24-px</title><g class="cls-2"><path class="cls-1" d="M0,0H24V24H0Z" transform="translate(0 0)"/></g></svg>