<svg width="86" height="50" viewBox="0 0 86 50" fill="none" xmlns="http://www.w3.org/2000/svg">
    <g clip-path="url(#clip0)">
        <path d="M85.2222 0H0.777771V28.6976H85.2222V0Z" fill="white"/>
        <path d="M68.2108 49.9681C68.1642 49.949 68.1613 49.8979 68.2005 49.785C68.2501 49.642 68.2729 49.6308 68.4635 49.6565C68.6364 49.6798 68.6873 49.6632 68.7595 49.5595C68.8984 49.3602 68.7912 49.2164 68.5391 49.2639C68.3458 49.3004 68.3428 49.2982 68.3801 49.1491C68.4983 48.6754 68.5096 48.7015 68.1571 48.6312C67.7376 48.5476 67.3362 48.3114 67.0278 47.9667C66.5649 47.4491 66.4043 46.9255 66.4505 46.0839C66.474 45.6551 66.5103 45.4879 66.6448 45.1897C67.0564 44.2772 67.9967 43.8119 69.2604 43.8953C69.534 43.9134 69.8814 43.9602 70.0324 43.9994L70.3069 44.0706L70.3227 44.5811L70.3385 45.0916H70.1717C70.0734 45.0916 70.005 45.0628 70.005 45.0214C70.005 44.878 69.6687 44.5462 69.431 44.455C69.1241 44.3372 68.5286 44.364 68.2304 44.5091C67.5487 44.8408 67.2379 45.7017 67.4451 46.6843C67.5414 47.1408 67.7005 47.447 68.0047 47.7613C68.293 48.0592 68.5839 48.1794 69.0196 48.1809C69.4805 48.1824 69.8032 47.9963 70.0061 47.6118C70.144 47.3505 70.1932 47.3185 70.3262 47.4032C70.3881 47.4426 70.3887 47.5335 70.3297 47.9526L70.2589 48.4547L70.0084 48.5417C69.8706 48.5896 69.554 48.6437 69.3049 48.662C68.8754 48.6935 68.8519 48.7019 68.8519 48.8249C68.8519 48.9232 68.8823 48.9547 68.977 48.9547C69.1604 48.9547 69.3324 49.0975 69.373 49.2833C69.4202 49.4993 69.2673 49.8188 69.0669 49.9229C68.9219 49.9983 68.3571 50.0281 68.2108 49.9681ZM35.5442 49.7358C35.0689 49.595 34.659 49.3825 34.1659 49.0214L33.74 48.7095L33.0811 48.6755C32.3506 48.6378 32.0953 48.5559 31.6227 48.2072C30.5817 47.4391 30.5439 45.4844 31.5517 44.533C32.3103 43.8168 33.645 43.6688 34.6058 44.1944C35.9027 44.9039 36.0404 46.9971 34.8623 48.0935C34.6794 48.2636 34.5004 48.4029 34.4643 48.4031C34.3521 48.4034 35.6424 49.1129 36.0197 49.2583C36.4365 49.4189 36.9235 49.4403 37.2803 49.3138C37.5398 49.2218 37.5842 49.2328 37.6277 49.4002C37.6532 49.498 37.6088 49.5392 37.3461 49.6614C36.9321 49.8542 36.0645 49.89 35.5442 49.7358ZM33.9342 48.0303C34.8536 47.5475 35.0286 46.0015 34.2757 45.0143C33.5779 44.0993 32.3549 44.2378 31.8952 45.2839C31.4799 46.229 31.9537 47.6901 32.801 48.0769C33.144 48.2334 33.5816 48.2154 33.9342 48.0303ZM5.07937 48.6022C4.82719 48.4916 4.55052 48.1474 4.11331 47.4005C3.44161 46.2531 3.31572 46.085 3.12819 46.085H2.96552L2.96662 46.7058C2.96864 47.839 3.08199 48.2268 3.43742 48.3164C3.5325 48.3404 3.56948 48.3881 3.56948 48.4867V48.6236H2.44392H1.31836V48.4936C1.31836 48.3952 1.3603 48.3515 1.49121 48.3138C1.58628 48.2864 1.71599 48.194 1.77946 48.1086C1.89209 47.9569 1.89486 47.9017 1.89486 45.809C1.89486 43.7162 1.89209 43.661 1.77946 43.5094C1.71599 43.424 1.58628 43.3317 1.49121 43.3043C1.3649 43.2678 1.31836 43.2218 1.31836 43.1333C1.31836 43.0127 1.32456 43.012 2.71291 42.9761C4.19057 42.9379 4.51619 42.9661 4.93269 43.1688C5.29654 43.3458 5.59982 43.8823 5.60067 44.3503C5.60164 44.8862 5.20518 45.4914 4.68203 45.7526L4.40818 45.8894L5.01344 46.8012C5.72549 47.8739 5.94911 48.1604 6.1595 48.2698C6.3559 48.3719 6.37477 48.5946 6.19121 48.644C5.97037 48.7035 5.24838 48.6763 5.07937 48.6022ZM3.7055 45.5267C4.44155 45.3213 4.68997 44.2933 4.13293 43.7578C3.87109 43.5061 3.59302 43.4148 3.23813 43.4638L2.96552 43.5015V44.5449V45.5883L3.22632 45.5879C3.36976 45.5878 3.58539 45.5602 3.7055 45.5267V45.5267ZM16.356 48.6026C16.055 48.4945 15.7713 48.302 15.6211 48.1041C15.3481 47.7444 15.3195 47.5552 15.3161 46.0918C15.3126 44.5623 15.284 44.3942 15.0047 44.2638C14.8925 44.2114 14.827 44.1405 14.8263 44.0706C14.8252 43.9645 14.8613 43.9602 15.7585 43.9602C16.6899 43.9602 16.6919 43.9605 16.6919 44.0844C16.6919 44.1678 16.659 44.2086 16.5916 44.2086C16.5365 44.2086 16.4315 44.2727 16.3583 44.351L16.2252 44.4934V45.9928C16.2252 47.404 16.2319 47.5051 16.3392 47.7108C16.5066 48.0316 16.8406 48.1966 17.2701 48.1708C17.7322 48.1429 17.9821 47.9782 18.1667 47.5799C18.3082 47.2743 18.3095 47.2592 18.3105 45.917C18.3115 44.7151 18.3007 44.5457 18.2148 44.414C18.1616 44.3323 18.0565 44.25 17.9814 44.2311C17.8962 44.2096 17.8449 44.1574 17.8449 44.0922C17.8449 43.995 17.8956 43.9878 18.5861 43.9878C19.2765 43.9878 19.3273 43.995 19.3273 44.0922C19.3273 44.1572 19.2761 44.2095 19.1916 44.2308C18.9388 44.2946 18.9186 44.4129 18.8887 46.0063L18.8606 47.5005L18.6953 47.8251C18.5002 48.2083 18.1843 48.4732 17.7776 48.5946C17.4345 48.697 16.6314 48.7015 16.356 48.6026ZM37.769 48.6026C37.4648 48.4933 37.1839 48.3014 37.0285 48.0966C36.7697 47.7555 36.7326 47.5033 36.7292 46.0624C36.7257 44.5643 36.6962 44.3938 36.4178 44.2638C36.3056 44.2114 36.2401 44.1405 36.2394 44.0706C36.2383 43.9645 36.2744 43.9602 37.1716 43.9602C38.0941 43.9602 38.105 43.9616 38.105 44.0806C38.1049 44.1614 38.0662 44.2067 37.9869 44.2185C37.922 44.2282 37.817 44.3062 37.7536 44.3919C37.6455 44.5378 37.6371 44.6287 37.6201 45.8381C37.5993 47.324 37.6405 47.6373 37.891 47.8948C38.3441 48.3606 39.2859 48.2305 39.5528 47.6652C39.7209 47.3092 39.764 46.8631 39.7433 45.6951C39.7214 44.4585 39.6847 44.3043 39.3945 44.2311C39.3092 44.2096 39.258 44.1574 39.258 44.0922C39.258 43.995 39.3087 43.9878 39.9992 43.9878C40.6878 43.9878 40.7404 43.9952 40.7404 44.0915C40.7404 44.1541 40.6767 44.2217 40.5796 44.2621C40.4912 44.2989 40.3999 44.3703 40.3768 44.4206C40.3537 44.4709 40.3211 45.1845 40.3043 46.0064L40.2737 47.5007L40.1084 47.8252C39.9133 48.2083 39.5973 48.4732 39.1907 48.5946C38.8476 48.697 38.0445 48.7015 37.769 48.6026ZM55.1483 48.6003C54.9288 48.5042 54.6678 48.1772 54.2639 47.4922C53.7422 46.6077 53.683 46.5279 53.5471 46.5271C53.4255 46.5265 53.4235 46.5374 53.4235 47.2181C53.4235 48.0433 53.4921 48.2759 53.7505 48.3279C53.8805 48.354 53.9177 48.3906 53.9177 48.4925V48.6236H52.9843H52.0509V48.4925C52.0509 48.3906 52.0881 48.354 52.2181 48.3279C52.5309 48.265 52.553 48.1155 52.5342 46.1945L52.5176 44.4932L52.3845 44.3509C52.3113 44.2726 52.2063 44.2086 52.1511 44.2086C52.089 44.2086 52.0509 44.1684 52.0509 44.1029C52.0509 44.0119 52.1066 43.992 52.4536 43.9593C52.6751 43.9385 53.2866 43.9309 53.8125 43.9425C54.6675 43.9613 54.7929 43.9764 54.9974 44.0848C55.3608 44.2775 55.5648 44.6531 55.5648 45.1292C55.5648 45.5814 55.3069 45.9787 54.8386 46.2475C54.6891 46.3333 54.5925 46.4195 54.624 46.4391C54.6555 46.4586 54.8981 46.8029 55.1632 47.2042C55.6835 47.9919 55.9728 48.3477 56.0928 48.3477C56.1987 48.3477 56.1893 48.6039 56.082 48.6453C55.9261 48.7054 55.3219 48.6763 55.1483 48.6003ZM54.1335 46.0042C54.3517 45.8907 54.566 45.6179 54.6063 45.4023C54.658 45.1254 54.5367 44.7602 54.3272 44.5616C54.1332 44.3777 53.9458 44.3249 53.6215 44.363L53.4235 44.3862V45.2356V46.085H53.7008C53.8533 46.085 54.048 46.0486 54.1335 46.0042ZM78.5731 48.5907C78.4087 48.5463 78.2642 48.5 78.2522 48.4879C78.2401 48.4758 78.2 48.2282 78.1629 47.9377L78.0956 47.4095H78.2505C78.3358 47.4095 78.4055 47.43 78.4055 47.4552C78.4055 47.5988 78.7658 48.0217 78.9747 48.1234C79.5394 48.3981 80.2176 48.1395 80.2171 47.6495C80.2166 47.3279 80.0615 47.1357 79.5325 46.8024C78.7902 46.3347 78.5035 46.0877 78.3555 45.7883C78.2079 45.4898 78.1815 45.0253 78.2929 44.686C78.3665 44.4621 78.7114 44.1277 79.0018 43.9988C79.2941 43.8691 80.209 43.8733 80.588 44.0061L80.8762 44.1071V44.5993V45.0916H80.7175C80.5942 45.0916 80.551 45.0609 80.5245 44.9546C80.4669 44.7241 80.1726 44.4363 79.9263 44.3697C79.2672 44.1913 78.7394 44.8709 79.1531 45.3651C79.2321 45.4595 79.5903 45.7367 79.9491 45.9811C80.6441 46.4546 80.9008 46.7124 80.9869 47.0232C81.1762 47.707 80.8617 48.311 80.1837 48.566C79.8199 48.7028 79.0328 48.7149 78.5731 48.5907ZM6.64418 48.4748C6.64418 48.377 6.67492 48.3477 6.77745 48.3477C6.85604 48.3477 6.95743 48.288 7.02453 48.2022C7.13417 48.0621 7.13832 47.9935 7.13832 46.3222C7.13832 45.1093 7.11911 44.5514 7.07445 44.4671C6.99265 44.3127 6.86229 44.2126 6.74026 44.2103C6.67484 44.2091 6.64418 44.1646 6.64418 44.0706V43.9326H8.29134H9.9385V44.5158V45.0989L9.79435 45.0815C9.68577 45.0683 9.63496 45.0176 9.58845 44.876C9.48021 44.5465 9.29947 44.4625 8.64594 44.4382L8.07171 44.4168V45.2028V45.9888L8.51334 45.9631C8.99465 45.9351 9.23703 45.8176 9.26972 45.5965C9.28267 45.509 9.32587 45.4779 9.43444 45.478L9.58161 45.478V46.1954V46.9128L9.43062 46.9128C9.30883 46.9128 9.27963 46.8877 9.27963 46.7833C9.27963 46.5369 9.09655 46.4456 8.56018 46.4244L8.07171 46.4051V47.1801C8.07171 48.1142 8.08025 48.1269 8.70715 48.1269C9.3254 48.1269 9.64769 47.9695 9.80905 47.5888C9.89059 47.3964 10.0807 47.3414 10.1387 47.4935C10.1771 47.5938 10.0223 48.2417 9.9061 48.4676L9.82385 48.6275L8.23401 48.6147L6.64418 48.6019V48.4748V48.4748ZM10.8719 48.4925C10.8719 48.3916 10.9091 48.354 11.0336 48.3289C11.3233 48.2707 11.3371 48.189 11.3556 46.4161C11.375 44.5701 11.3515 44.4039 11.0515 44.2638C10.9264 44.2053 10.8739 44.1429 10.8731 44.0516L10.8719 43.9222L12.121 43.945C13.4715 43.9698 13.5817 43.9912 13.9478 44.3008C14.3501 44.6411 14.4544 45.3178 14.182 45.8208C13.9445 46.2594 13.5338 46.4924 12.8791 46.5598L12.5361 46.5951L12.4509 46.3814L12.3657 46.1677L12.5686 46.1379C12.8264 46.1 13.1063 45.9359 13.2545 45.7358C13.3388 45.622 13.3691 45.5027 13.3663 45.2943C13.3592 44.757 13.0587 44.4283 12.5344 44.3846L12.2377 44.3599L12.2548 46.202C12.2735 48.211 12.2824 48.2675 12.5877 48.3304C12.7013 48.3538 12.7387 48.3939 12.7387 48.4925V48.6236H11.8053H10.8719V48.4925H10.8719ZM19.9862 48.4724C19.9862 48.3869 20.0188 48.3477 20.0899 48.3477C20.147 48.3477 20.252 48.3002 20.3233 48.2422L20.4529 48.1368L20.4695 46.4262C20.4881 44.5114 20.467 44.3668 20.1519 44.2472C20.053 44.2097 19.9862 44.1448 19.9862 44.0861C19.9862 43.9968 20.0623 43.9866 20.8235 43.974C22.4258 43.9476 22.7611 43.9657 23.0217 44.0925C23.3595 44.2569 23.5173 44.4948 23.5452 44.8818C23.5577 45.0557 23.5527 45.259 23.534 45.3337C23.48 45.5503 23.224 45.8148 22.9411 45.9466L22.6795 46.0684L22.9011 46.1351C23.4304 46.2945 23.7679 46.8509 23.698 47.4488C23.639 47.9535 23.4235 48.2374 22.9236 48.4689C22.6611 48.5905 22.5909 48.596 21.3176 48.5965L19.9862 48.5971V48.4724V48.4724ZM22.4076 48.0568C22.6875 47.8689 22.7985 47.613 22.7674 47.2281C22.7205 46.6491 22.3181 46.3057 21.6865 46.3057H21.3509L21.3686 47.1385C21.3855 47.9368 21.3916 47.9757 21.5159 48.0767C21.7055 48.2309 22.1636 48.2206 22.4076 48.0568ZM22.1809 45.7636C22.518 45.6338 22.6954 45.3685 22.6603 45.0468C22.6132 44.6144 22.2666 44.3741 21.69 44.3741H21.3588V45.1192V45.8642L21.6471 45.8612C21.8056 45.8596 22.0458 45.8156 22.1809 45.7636V45.7636ZM24.4335 48.4755C24.4335 48.3863 24.4713 48.3505 24.5791 48.3375C24.6609 48.3277 24.7751 48.2518 24.8399 48.1643C24.951 48.0139 24.9551 47.9487 24.9551 46.3155C24.9551 44.9586 24.9397 44.5951 24.8775 44.4845C24.7805 44.3121 24.6543 44.2126 24.5296 44.2103C24.4671 44.2092 24.4335 44.1652 24.4335 44.0844C24.4335 43.9602 24.4335 43.9602 25.4218 43.9602C26.4101 43.9602 26.4101 43.9602 26.4101 44.0844C26.4101 44.1706 26.3775 44.2086 26.3034 44.2086C26.2446 44.2086 26.1273 44.2685 26.0426 44.3417L25.8885 44.4748L25.8726 46.2154L25.8566 47.9559L25.9971 48.0484C26.1084 48.1217 26.2273 48.1358 26.5676 48.1159C27.0901 48.0855 27.3348 47.9556 27.4803 47.6312C27.5772 47.4153 27.6796 47.3629 27.8243 47.4552C27.8786 47.4898 27.8697 47.5918 27.7828 47.9337C27.722 48.1726 27.634 48.4267 27.5873 48.4983L27.5025 48.6285L25.968 48.6123L24.4335 48.596L24.4335 48.4755ZM28.2769 48.4925C28.2769 48.3906 28.3141 48.354 28.444 48.3279C28.7472 48.2669 28.7711 48.1164 28.7708 46.2661C28.7707 44.7295 28.7636 44.6109 28.6627 44.4446C28.6034 44.3468 28.4923 44.251 28.4159 44.2317C28.3213 44.2078 28.2769 44.1589 28.2769 44.0784C28.2769 43.9623 28.2929 43.9602 29.2103 43.9602C30.1276 43.9602 30.1437 43.9623 30.1437 44.0784C30.1437 44.1583 30.0994 44.2078 30.0071 44.2311C29.932 44.25 29.827 44.3323 29.7738 44.4139C29.6866 44.5475 29.677 44.7309 29.677 46.248C29.677 48.1218 29.6993 48.2721 29.9868 48.3299C30.1065 48.354 30.1437 48.3925 30.1437 48.4925V48.6236H29.2103H28.2769V48.4925ZM41.3993 48.4825C41.3993 48.3918 41.4411 48.353 41.5664 48.3279C41.8697 48.2669 41.8934 48.1168 41.8934 46.2605C41.8934 44.6343 41.8917 44.6086 41.768 44.4237C41.699 44.3206 41.5878 44.2282 41.5209 44.2185C41.4335 44.2059 41.3993 44.1632 41.3993 44.0668V43.9326H43.019H44.6387V44.5121C44.6387 45.0862 44.6375 45.0916 44.5075 45.0916C44.4014 45.0916 44.3696 45.0552 44.3408 44.9007C44.2795 44.5727 44.0552 44.4625 43.3988 44.4381L42.8434 44.4174L42.8076 44.6794C42.788 44.8235 42.7719 45.1774 42.7719 45.4658V45.9901L43.239 45.9609C43.7533 45.9286 43.9568 45.8376 44.0123 45.6152C44.0369 45.5168 44.0838 45.4779 44.1779 45.4779H44.3092V46.1953V46.9128H44.172C44.0785 46.9128 44.0342 46.882 44.033 46.8162C44.028 46.543 43.7668 46.4161 43.2095 46.4161H42.7614L42.7804 47.1932C42.8034 48.1346 42.7978 48.1269 43.4571 48.1269C44.039 48.1269 44.3416 47.9868 44.5 47.644C44.5798 47.4714 44.6405 47.4095 44.7301 47.4095C44.7971 47.4095 44.8685 47.4366 44.8889 47.4698C44.939 47.5512 44.6954 48.4483 44.5962 48.548C44.5308 48.6138 44.2519 48.6253 42.9583 48.6155L41.3993 48.6036V48.4825ZM47.4389 48.4956C47.4389 48.4051 47.49 48.3444 47.6134 48.2886C47.7094 48.2452 47.8391 48.1396 47.9016 48.0538C48.0119 47.9027 48.0154 47.8349 48.0154 45.8187C48.0154 43.4798 48.011 43.4516 47.632 43.3259C47.4818 43.2761 47.4389 43.2321 47.4389 43.1281V42.9945H49.3605H51.2822V43.6843V44.3741H51.1175C50.9834 44.3741 50.9528 44.3511 50.9526 44.25C50.9523 44.0469 50.7455 43.7668 50.5261 43.6722C50.3962 43.6162 50.0955 43.5745 49.7037 43.5582L49.086 43.5324V44.4776V45.4227L49.539 45.4196C50.1427 45.4155 50.3494 45.3401 50.4769 45.0778C50.5589 44.909 50.6071 44.8708 50.7377 44.8708H50.8979V45.7022V46.5335L50.7216 46.5162C50.6005 46.5043 50.536 46.4643 50.5157 46.3885C50.4286 46.0639 50.0926 45.9194 49.4248 45.9194H49.0738L49.0961 46.899C49.1217 48.0169 49.1684 48.1803 49.4973 48.2998C49.6415 48.3522 49.69 48.4017 49.69 48.4967V48.6236H48.5644H47.4389V48.4956ZM56.2237 48.4856C56.2237 48.3848 56.253 48.3477 56.3327 48.3477C56.501 48.3477 56.6931 48.0037 57.1108 46.9551C57.67 45.5508 58.2003 44.123 58.2003 44.0215C58.2003 43.9521 58.2575 43.9329 58.4611 43.9338L58.7219 43.9349L59.4625 45.8428C60.2667 47.9146 60.4149 48.2367 60.6024 48.3194C60.6782 48.3528 60.726 48.4221 60.726 48.4987C60.726 48.6235 60.7254 48.6236 59.7926 48.6236H58.8592V48.4925C58.8592 48.3913 58.8963 48.354 59.0224 48.3286C59.2584 48.2812 59.2726 48.1207 59.0892 47.575L58.9315 47.1059H58.2828H57.634L57.5036 47.4922C57.3392 47.979 57.3488 48.3122 57.5277 48.3377C57.6171 48.3505 57.6513 48.3924 57.6513 48.4895V48.6236H56.9375H56.2237V48.4856V48.4856ZM58.7494 46.5532C58.7494 46.4692 58.346 45.3675 58.3153 45.3675C58.2953 45.3675 58.2393 45.4731 58.1909 45.6021C58.1425 45.7311 58.0395 46.0043 57.9619 46.2091L57.8209 46.5817H58.2851C58.5405 46.5817 58.7494 46.5688 58.7494 46.5532ZM61.1103 48.4925C61.1103 48.3939 61.1476 48.3538 61.2613 48.3304C61.5583 48.2692 61.5716 48.1914 61.5947 46.3867C61.6185 44.5249 61.5953 44.3684 61.276 44.2472C61.1771 44.2097 61.1103 44.1448 61.1103 44.0861C61.1103 43.9977 61.1722 43.9878 61.728 43.988L62.3457 43.9881L62.7025 44.4421C62.8988 44.6918 63.4053 45.3069 63.8281 45.809C64.2509 46.3111 64.6534 46.7959 64.7227 46.8863L64.8486 47.0507L64.8308 45.804C64.8114 44.4455 64.7807 44.3053 64.4863 44.2311C64.401 44.2096 64.3497 44.1574 64.3497 44.0922C64.3497 43.995 64.4005 43.9878 65.0909 43.9878C65.7866 43.9878 65.8322 43.9944 65.8322 44.0944C65.8322 44.1611 65.7881 44.2075 65.7141 44.2185C65.6492 44.2282 65.5442 44.3062 65.4808 44.3919C65.3693 44.5425 65.3649 44.6151 65.3486 46.5856L65.3318 48.6236H65.0924C64.8759 48.6236 64.8358 48.6012 64.6716 48.389C64.5264 48.2015 62.2003 45.3057 62.1115 45.202C62.0985 45.1868 62.0987 45.7952 62.1121 46.5541C62.1388 48.0928 62.1722 48.2769 62.4345 48.3296C62.5558 48.354 62.5929 48.3922 62.5929 48.4925V48.6236H61.8517H61.1105V48.4925L61.1103 48.4925ZM70.7187 48.4856C70.7187 48.4036 70.7502 48.3477 70.7962 48.3477C70.9047 48.3477 71.1082 48.0887 71.2535 47.7657C71.4556 47.3165 72.3953 44.8786 72.5565 44.3851L72.7062 43.927L72.9516 43.9436L73.1971 43.9602L73.9255 45.8366C74.3261 46.8686 74.6979 47.7999 74.7517 47.9062C74.8745 48.1487 75.0532 48.3477 75.1482 48.3477C75.1892 48.3477 75.221 48.4078 75.221 48.4856V48.6236H74.2876H73.3542V48.4856C73.3542 48.3896 73.3842 48.3477 73.453 48.3477C73.7187 48.3477 73.7434 48.1144 73.5418 47.5062L73.4001 47.0783H72.7557H72.1114L71.9945 47.4509C71.7738 48.1545 71.7843 48.3477 72.0432 48.3477C72.1165 48.3477 72.1463 48.3875 72.1463 48.4856V48.6236H71.4325H70.7187V48.4856ZM73.0484 46.016C72.9446 45.7049 72.8449 45.4131 72.827 45.3675C72.8074 45.3181 72.6976 45.5292 72.5543 45.8918C72.4223 46.2257 72.3136 46.5175 72.3127 46.5403C72.3117 46.563 72.5194 46.5817 72.774 46.5817H73.2371L73.0484 46.016ZM75.5504 48.4856C75.5504 48.3777 75.5784 48.3477 75.6792 48.3477C75.75 48.3477 75.855 48.2954 75.9125 48.2316C76.0099 48.1235 76.0182 47.9966 76.0332 46.3966C76.0421 45.4512 76.0356 44.6225 76.0188 44.555C75.9797 44.3978 75.7782 44.2086 75.6499 44.2086C75.5833 44.2086 75.5504 44.1675 75.5504 44.0844C75.5504 43.9605 75.5524 43.9602 76.4837 43.9602C77.3814 43.9602 77.4171 43.9645 77.4172 44.0709C77.4172 44.14 77.3574 44.2082 77.2583 44.2523C77.1709 44.2912 77.0739 44.3904 77.0427 44.4728C76.9627 44.6842 76.9172 46.4063 76.9671 47.3367C77.0018 47.9856 77.0265 48.1388 77.1118 48.2335C77.1683 48.2963 77.2602 48.3477 77.3159 48.3477C77.3873 48.3477 77.4172 48.3883 77.4172 48.4856V48.6236H76.4838H75.5504V48.4856ZM81.6998 48.4757C81.6998 48.3769 81.7303 48.3477 81.8331 48.3477C81.9117 48.3477 82.013 48.288 82.0801 48.2022C82.1898 48.0621 82.1939 47.9935 82.1939 46.3222C82.1939 45.1093 82.1747 44.5514 82.1301 44.4671C82.0483 44.3127 81.9179 44.2126 81.7959 44.2103C81.7305 44.2091 81.6998 44.1646 81.6998 44.0706V43.9326H83.347H84.9941V44.5158V45.0989L84.85 45.0815C84.7414 45.0683 84.6906 45.0176 84.6441 44.876C84.5358 44.5465 84.3551 44.4625 83.7016 44.4382L83.1273 44.4168V45.1957V45.9746L83.4705 45.9715C83.9469 45.9672 84.1792 45.8774 84.2803 45.6585C84.3407 45.528 84.3995 45.48 84.5 45.4792L84.6372 45.4781V46.1954V46.9128L84.4862 46.9128C84.3645 46.9128 84.3353 46.8878 84.3353 46.7834C84.3353 46.5369 84.1522 46.4456 83.6158 46.4244L83.1273 46.4051V47.1801C83.1273 48.1142 83.1359 48.1269 83.7628 48.1269C84.381 48.1269 84.7033 47.9695 84.8647 47.5888C84.9462 47.3964 85.1363 47.3415 85.1944 47.4935C85.2327 47.5939 85.0779 48.2417 84.9617 48.4676L84.8795 48.6275L83.2896 48.6156L81.6998 48.6038V48.4757V48.4757ZM8.12969 43.4402L7.9955 43.3365L8.32186 42.8352C8.50136 42.5595 8.68326 42.3335 8.72608 42.3331C8.91174 42.331 9.50288 42.4587 9.48808 42.4976C9.45859 42.5752 8.37492 43.5457 8.31879 43.5448C8.28859 43.5443 8.2035 43.4972 8.12969 43.4402ZM1.15364 39.628H84.7745V40.1247H1.15364V39.628ZM32.9788 38.4986C32.5396 38.3412 32.2926 37.9297 32.3726 37.4887C32.4265 37.1914 32.5939 36.9835 32.8903 36.8455L33.1496 36.7247L32.9918 36.6337C32.9021 36.5819 32.834 36.4957 32.834 36.434C32.834 36.3341 33.2366 35.9304 33.3362 35.9304C33.36 35.9304 33.3255 35.8386 33.2596 35.7264C32.9784 35.2474 33.2034 34.5549 33.7283 34.2833C34.0125 34.1363 34.1085 34.1301 35.1036 34.1942C35.6761 34.231 35.6974 34.2369 35.6671 34.3502C35.6498 34.415 35.6354 34.4866 35.635 34.5094C35.6345 34.5321 35.5377 34.5507 35.4198 34.5507H35.2054L35.2343 34.8716C35.2975 35.5716 34.8022 36.051 34.0026 36.0639C33.5873 36.0706 33.3862 36.1591 33.5483 36.264C33.5933 36.2931 33.8614 36.3922 34.1441 36.4842C35.0531 36.7799 35.2211 36.9287 35.1824 37.4038C35.1421 37.8973 34.7472 38.3276 34.1758 38.5004C33.8486 38.5994 33.2576 38.5985 32.9788 38.4986ZM34.2013 38.1579C34.6471 37.9346 34.8402 37.5092 34.5964 37.2874C34.4322 37.1381 33.7189 36.9087 33.5341 36.9459C33.1578 37.0215 32.8063 37.4826 32.8712 37.8155C32.9604 38.273 33.6283 38.4449 34.2013 38.1579ZM34.3483 35.6608C34.683 35.4557 34.8122 34.8736 34.587 34.5858C34.2789 34.1921 33.6926 34.6309 33.6871 35.2592C33.6854 35.4544 33.7135 35.523 33.8391 35.6317C34.0243 35.7918 34.1252 35.7976 34.3483 35.6608ZM36.4303 36.9414C36.1891 36.8919 36.0599 36.7301 36.0325 36.4432C35.9623 35.7086 36.5771 34.6321 37.2652 34.2848C37.6228 34.1043 38.3283 34.086 38.7983 34.2452C38.8405 34.2595 38.8093 34.4481 38.7006 34.8362C38.4881 35.5951 38.3664 36.3547 38.4363 36.486C38.4822 36.5721 38.5147 36.578 38.6602 36.527C38.7946 36.48 38.8407 36.4835 38.8786 36.5438C38.9577 36.6694 38.9096 36.7172 38.5959 36.825C38.1741 36.9699 37.981 36.9417 37.9176 36.7257L37.8676 36.5552L37.6428 36.6815C37.2633 36.8947 36.7445 37.0059 36.4303 36.9414ZM37.3795 36.4452C37.5391 36.369 37.7057 36.2516 37.7495 36.1843C37.8228 36.0718 38.0465 35.2439 38.1338 34.7618C38.1696 34.5642 38.1652 34.5574 37.9656 34.502C37.5968 34.3997 37.2259 34.67 36.9305 35.2564C36.6206 35.8716 36.5424 36.4197 36.7444 36.5618C36.8814 36.6584 36.9654 36.6429 37.3795 36.4452ZM63.3755 36.9252C63.1291 36.8664 63.0422 36.7805 62.9748 36.529C62.8727 36.1478 63.109 35.4267 63.5109 34.8932C63.9921 34.2544 64.527 34.0388 65.3168 34.1653C65.5248 34.1986 65.7112 34.243 65.7312 34.2641C65.7512 34.2852 65.6818 34.6377 65.577 35.0474C65.4722 35.4572 65.3818 35.9539 65.376 36.1512L65.3655 36.5099L65.5988 36.4995C65.8082 36.4901 65.8322 36.5019 65.8322 36.6149C65.8322 36.7203 65.7805 36.7565 65.5154 36.8372C65.079 36.97 64.8765 36.9416 64.8539 36.7445C64.8444 36.661 64.8266 36.5927 64.8143 36.5927C64.8021 36.5927 64.6585 36.6521 64.4952 36.7246C64.2326 36.8414 63.6973 36.9888 63.5921 36.9734C63.5709 36.9702 63.4734 36.9486 63.3755 36.9252ZM64.2948 36.4528C64.4307 36.3845 64.5819 36.2825 64.6309 36.2261C64.7524 36.0862 64.9705 35.3659 65.0833 34.7318C65.1134 34.5627 65.1043 34.5512 64.8964 34.4949C64.7185 34.4468 64.6422 34.4528 64.4858 34.5274C64.1373 34.6937 63.7914 35.2576 63.612 35.9522C63.4402 36.6174 63.6544 36.7745 64.2948 36.4528ZM4.74975 36.7996C4.73339 36.7313 4.83126 36.218 4.96725 35.6589C5.23536 34.5564 5.23309 34.4669 4.93925 34.5516C4.79392 34.5935 4.77739 34.5854 4.77739 34.4728C4.77739 34.3677 4.82845 34.3325 5.0931 34.2548C5.26674 34.2039 5.49528 34.1565 5.60097 34.1495C5.78188 34.1376 5.79418 34.1477 5.81077 34.322C5.82047 34.4238 5.72577 34.9282 5.60032 35.4429C5.47487 35.9577 5.38692 36.4173 5.40488 36.4643C5.43088 36.5324 5.48856 36.5422 5.68831 36.512C5.92727 36.476 5.93824 36.4802 5.92102 36.6007C5.90678 36.7004 5.83903 36.7473 5.60097 36.8221C5.43488 36.8743 5.18211 36.9186 5.03924 36.9204C4.81391 36.9234 4.77554 36.9074 4.74975 36.7996ZM6.86059 36.8219L6.73541 36.72L7.16076 34.8417C7.39471 33.8087 7.57802 32.8922 7.56812 32.8051C7.54966 32.6427 7.52977 32.6344 7.31677 32.6993C7.21142 32.7314 7.19323 32.7165 7.19323 32.5979C7.19323 32.4372 7.38606 32.3595 7.92073 32.3049C8.22703 32.2737 8.23643 32.2767 8.23643 32.4065C8.23643 32.48 8.14995 32.9341 8.04426 33.4155C7.93857 33.8969 7.85209 34.323 7.85209 34.3625C7.85209 34.416 7.91246 34.4073 8.09044 34.3282C8.70191 34.0563 9.23493 34.0707 9.42627 34.3642C9.60542 34.6391 9.51266 35.3503 9.22162 35.9333C9.07019 36.2367 8.61959 36.7088 8.37486 36.8206C8.05338 36.9674 7.04039 36.9683 6.86059 36.8219V36.8219ZM8.24995 36.472C8.52523 36.2762 8.83211 35.6144 8.91866 35.03C9.00537 34.4444 8.62035 34.3276 8.00538 34.7529C7.87549 34.8427 7.77126 34.9765 7.71747 35.1223C7.61793 35.3923 7.41285 36.2733 7.41285 36.431C7.41285 36.6633 7.94448 36.6893 8.24995 36.472ZM10.3468 36.7546C10.1981 36.5985 10.1858 36.5545 10.1889 36.1889C10.1968 35.2573 10.7237 34.4236 11.4495 34.1941C11.8117 34.0796 12.1302 34.1184 12.3438 34.303C12.4669 34.4095 12.4916 34.476 12.4916 34.7018C12.4916 35.2699 11.9761 35.7009 11.2342 35.753C11.0198 35.768 10.8263 35.8079 10.8041 35.8416C10.7423 35.9355 10.7546 36.2545 10.8252 36.3894C10.9622 36.651 11.1588 36.6571 11.6295 36.4145C11.9228 36.2633 11.9832 36.2486 12.0267 36.3179C12.1238 36.4721 12.0788 36.5205 11.6519 36.722C11.2963 36.8897 11.1634 36.9238 10.866 36.9238C10.5383 36.9238 10.4945 36.9095 10.3468 36.7546ZM11.33 35.4294C11.7971 35.299 12.1053 34.7971 11.8659 34.5565C11.715 34.4048 11.5754 34.4098 11.3814 34.5738C11.227 34.7044 10.976 35.1184 10.9019 35.3648C10.8706 35.4687 10.8853 35.4889 10.9917 35.4886C11.0617 35.4885 11.2139 35.4618 11.33 35.4294ZM13.1779 36.905C13.1779 36.8958 13.2766 36.4679 13.3972 35.9541C13.5178 35.4402 13.6166 34.9111 13.6168 34.7782L13.6171 34.5366L13.3975 34.5719C13.2029 34.6032 13.1779 34.5947 13.1779 34.4969C13.1779 34.3759 13.3554 34.2832 13.8011 34.1716C14.106 34.0952 14.2211 34.1476 14.2211 34.3627V34.4922L14.416 34.3593C14.7587 34.1255 14.9681 34.0827 15.2169 34.1954C15.336 34.2494 15.4259 34.3204 15.4167 34.3532C15.2676 34.8814 15.1828 35.0474 15.0621 35.0474C14.9542 35.0474 14.9349 35.0192 14.9349 34.861C14.9349 34.4595 14.5874 34.4567 14.3354 34.8561C14.1784 35.105 14.016 35.6709 13.8871 36.4188C13.8487 36.6419 13.7907 36.8323 13.7584 36.8418C13.6618 36.8704 13.1779 36.9231 13.1779 36.905H13.1779ZM15.9321 36.8518C15.8715 36.7784 15.9048 36.5801 16.2187 35.144L16.3484 34.5507H16.1632C16.0614 34.5507 15.9781 34.5367 15.9781 34.5195C15.9781 34.4332 16.101 34.2748 16.168 34.2748C16.3018 34.2748 16.5589 34.0135 16.6667 33.7678C16.7873 33.4931 16.8352 33.449 17.0144 33.4478C17.1324 33.4471 17.1414 33.4641 17.109 33.6264C17.0894 33.725 17.0584 33.8988 17.0403 34.0127L17.0073 34.2196H17.2613C17.5209 34.2196 17.5591 34.2618 17.4821 34.4634C17.4581 34.5262 17.375 34.5507 17.1861 34.5507C16.8809 34.5507 16.931 34.4404 16.6874 35.6489C16.5085 36.5367 16.5206 36.6185 16.8179 36.5328C17.066 36.4613 17.086 36.4672 17.0663 36.6065C17.053 36.7007 16.9825 36.7529 16.7742 36.8228C16.4381 36.9356 16.0134 36.9503 15.9321 36.8518ZM18.1468 36.7806C17.745 36.3448 18.0358 35.1054 18.6755 34.5273C18.9365 34.2914 19.344 34.1092 19.6107 34.1092C19.7795 34.1092 20.1515 34.2831 20.2074 34.3882C20.2959 34.5544 20.2683 34.9514 20.1554 35.1376C19.9239 35.5192 19.4249 35.7649 18.8812 35.7649H18.5586V36.0561C18.5586 36.6215 18.7924 36.7207 19.4069 36.4162C19.6028 36.3191 19.7738 36.2508 19.787 36.2644C19.8002 36.278 19.8195 36.3388 19.83 36.3995C19.8452 36.4881 19.7688 36.5508 19.4433 36.7169C19.0909 36.8967 18.9881 36.9238 18.6583 36.9238C18.3204 36.9238 18.2644 36.9081 18.1468 36.7806ZM19.1132 35.4253C19.4033 35.3264 19.6068 35.1593 19.6947 34.9478C19.7687 34.7699 19.7666 34.7427 19.6693 34.6111C19.5184 34.4072 19.3702 34.4059 19.1428 34.6066C18.9674 34.7614 18.6684 35.2805 18.6684 35.4303C18.6684 35.5073 18.8797 35.5049 19.1132 35.4253ZM39.7338 36.887C39.6563 36.8091 39.7066 36.4834 39.9699 35.3577C40.3282 33.8263 40.5208 32.9247 40.5208 32.7785C40.5208 32.6738 40.4983 32.6636 40.3286 32.6913C40.1537 32.7198 40.1364 32.7107 40.1364 32.5902C40.1364 32.4522 40.2734 32.3911 40.819 32.2857C41.1008 32.2313 41.1796 32.2672 41.1796 32.4498C41.1796 32.5323 40.9945 33.4051 40.7682 34.3893C40.5419 35.3735 40.3566 36.2629 40.3564 36.3656L40.356 36.5525L40.6069 36.5179C40.8427 36.4855 40.8566 36.4907 40.8402 36.6053C40.8267 36.6995 40.7542 36.7487 40.5208 36.8221C40.2123 36.9191 39.7996 36.9531 39.7338 36.887H39.7338ZM41.8035 36.8564C41.7362 36.7468 41.7747 36.5079 42.0085 35.585C42.1303 35.1044 42.2207 34.6689 42.2094 34.6172C42.1877 34.5179 42.174 34.5157 41.9346 34.5723C41.8071 34.6025 41.7836 34.5903 41.7836 34.4938C41.7836 34.3622 42.018 34.2454 42.4449 34.164C42.75 34.1058 42.8817 34.1356 42.8817 34.2626C42.8817 34.3102 42.7698 34.8179 42.6331 35.3909C42.4964 35.9639 42.4008 36.4592 42.4207 36.4916C42.4429 36.5277 42.5514 36.5375 42.7005 36.5169C42.9286 36.4855 42.943 36.4911 42.9266 36.6053C42.9131 36.6995 42.8407 36.7487 42.6072 36.8221C42.2499 36.9345 41.8617 36.951 41.8035 36.8564ZM43.8314 36.8318C43.8121 36.7812 43.8268 36.6011 43.8641 36.4317C43.9866 35.8754 44.2543 34.6024 44.2543 34.5763C44.2543 34.5622 44.1784 34.5507 44.0856 34.5507C43.8473 34.5507 43.8917 34.3965 44.172 34.2509C44.3389 34.1642 44.4352 34.0541 44.5731 33.7919C44.7301 33.4934 44.7754 33.447 44.9094 33.447H45.0643L44.9907 33.7919C44.9502 33.9816 44.9162 34.1555 44.9151 34.1782C44.9141 34.201 45.0367 34.2196 45.1877 34.2196C45.4746 34.2196 45.4813 34.2254 45.4277 34.4266C45.3987 34.5351 45.3587 34.5507 45.1104 34.5507H44.8263L44.6416 35.4821C44.5401 35.9943 44.4719 36.4524 44.4901 36.5C44.5168 36.57 44.5578 36.5766 44.7041 36.5345C44.9557 36.4619 44.9681 36.4656 44.9681 36.613C44.9681 36.7252 44.9228 36.7565 44.6488 36.8338C44.2234 36.9537 43.8777 36.9529 43.8314 36.8318V36.8318ZM46.0925 36.7988C45.9558 36.6807 45.9321 36.6158 45.9125 36.3067C45.8685 35.6121 46.1849 34.8279 46.6545 34.4675C47.1731 34.0695 47.7395 34.0166 48.0578 34.3366C48.2055 34.485 48.2185 34.5269 48.1947 34.7762C48.1424 35.3228 47.6212 35.7199 46.908 35.7564C46.462 35.7792 46.4151 35.833 46.5026 36.2217C46.5978 36.6449 46.7709 36.6883 47.3204 36.427C47.6845 36.2539 47.7683 36.254 47.7683 36.4276C47.7683 36.6039 47.1093 36.8873 46.6385 36.9134C46.2881 36.9328 46.2344 36.9216 46.0925 36.7988V36.7988ZM47.2732 35.3239C47.6156 35.1483 47.7625 34.7578 47.5676 34.5413C47.3223 34.2689 46.8683 34.6257 46.6428 35.268L46.56 35.504L46.8074 35.4699C46.9435 35.4511 47.1531 35.3854 47.2732 35.3239ZM60.3965 36.9035C60.3965 36.8951 60.4952 36.4679 60.6158 35.9541C60.7364 35.4402 60.8352 34.9111 60.8354 34.7782L60.836 34.5366L60.6164 34.5719C60.4224 34.6031 60.3967 34.5945 60.3967 34.4982C60.3967 34.3641 60.4934 34.3099 60.9381 34.194C61.3246 34.0934 61.4399 34.1321 61.4399 34.3627V34.4922L61.6348 34.3593C61.9766 34.1262 62.1871 34.0827 62.4335 34.1944C62.5514 34.2478 62.6479 34.3064 62.6479 34.3246C62.6479 34.3427 62.5925 34.5128 62.5248 34.7025C62.4232 34.9873 62.3801 35.0474 62.2777 35.0474C62.1735 35.0474 62.1537 35.0178 62.1537 34.861C62.1537 34.4838 61.8311 34.4557 61.5901 34.8119C61.407 35.0827 61.3132 35.3767 61.163 36.1512C61.0954 36.5002 61.025 36.8013 61.0066 36.8201C60.9737 36.854 60.3967 36.9328 60.3967 36.9035H60.3965ZM66.7291 36.8375C66.6841 36.7195 66.7361 36.3796 66.9482 35.4062L67.1285 34.5783L66.9745 34.561C66.7902 34.5404 66.7591 34.357 66.9306 34.3023C67.1236 34.2407 67.3465 34.0132 67.4542 33.7678C67.5747 33.4931 67.6227 33.449 67.8019 33.4478C67.9198 33.4471 67.9289 33.4641 67.8965 33.6264C67.8768 33.725 67.8459 33.8988 67.8277 34.0127L67.7947 34.2196H68.0488C68.3083 34.2196 68.3465 34.2618 68.2696 34.4634C68.2456 34.5262 68.1624 34.5507 67.9735 34.5507C67.6683 34.5507 67.7184 34.4404 67.4749 35.6489C67.296 36.5367 67.3081 36.6185 67.6053 36.5328C67.8534 36.4613 67.8734 36.4672 67.8537 36.6065C67.8404 36.7007 67.7699 36.7529 67.5617 36.8228C67.1962 36.9455 66.7732 36.953 66.7291 36.8375ZM68.9444 36.781C68.5282 36.3626 68.8159 35.112 69.4629 34.5273C69.7239 34.2914 70.1315 34.1092 70.3981 34.1092C70.567 34.1092 70.9389 34.2831 70.9949 34.3882C71.0834 34.5544 71.0558 34.9514 70.9428 35.1376C70.7102 35.521 70.2123 35.7649 69.662 35.7649H69.3329L69.3573 36.1034C69.3959 36.641 69.5925 36.7145 70.1943 36.4162C70.3902 36.3191 70.5613 36.2508 70.5745 36.2644C70.5877 36.278 70.607 36.3388 70.6174 36.3995C70.6326 36.4881 70.5563 36.5508 70.2308 36.7169C69.8815 36.8951 69.774 36.9238 69.4559 36.9238C69.1318 36.9238 69.0691 36.9063 68.9444 36.781ZM70.0955 35.3427C70.4795 35.1508 70.6516 34.706 70.4122 34.5239C70.2532 34.403 70.1379 34.4234 69.9267 34.6097C69.7501 34.7656 69.4559 35.2829 69.4559 35.4376C69.4559 35.5289 69.8353 35.4726 70.0955 35.3427ZM71.7619 36.8764C71.7619 36.8531 71.8622 36.4056 71.9847 35.8818C72.1073 35.358 72.2 34.8505 72.1906 34.7539C72.1748 34.5893 72.1612 34.5791 71.9736 34.5898C71.8167 34.5988 71.7676 34.5783 71.7459 34.4951C71.7234 34.4087 71.771 34.3693 72.0009 34.2841C72.1563 34.2264 72.3762 34.1624 72.4895 34.1417C72.7024 34.103 72.6988 34.1 72.832 34.424C72.8345 34.4301 72.9812 34.3619 73.158 34.2722C73.5364 34.0804 73.5998 34.0751 73.8298 34.2161L74.0035 34.3225L73.8847 34.6836C73.7856 34.985 73.7455 35.045 73.6424 35.0461C73.539 35.0472 73.5189 35.0178 73.5189 34.8653C73.5189 34.3844 73.0636 34.4795 72.8143 35.0125C72.7517 35.1464 72.6277 35.608 72.5387 36.0384C72.4497 36.4687 72.3682 36.8281 72.3577 36.837C72.3093 36.8777 71.7619 36.9139 71.7619 36.8764ZM74.5072 36.8766C74.5072 36.8517 74.5953 36.4859 74.7031 36.0636C74.8207 35.6024 74.903 35.1415 74.909 34.9095L74.919 34.5232L74.7199 34.5385C74.5634 34.5506 74.515 34.5316 74.4937 34.4497C74.4716 34.3647 74.518 34.3299 74.7477 34.2596C75.2469 34.1068 75.3645 34.0958 75.4612 34.1931C75.5103 34.2424 75.5504 34.343 75.5504 34.4167C75.5504 34.4905 75.5605 34.5508 75.5729 34.5508C75.5853 34.5508 75.7484 34.4781 75.9352 34.3892C76.3778 34.1789 76.9643 34.0685 77.1394 34.1627C77.2537 34.2242 77.2618 34.2559 77.2284 34.5088C77.2082 34.662 77.1194 35.088 77.031 35.4555C76.9426 35.8229 76.8637 36.2105 76.8555 36.3168C76.8407 36.5099 76.8407 36.5099 77.0717 36.5053C77.2295 36.5022 77.3127 36.527 77.3343 36.5836C77.3778 36.6976 77.3259 36.7347 76.9817 36.836C76.5912 36.951 76.2317 36.9519 76.1883 36.838C76.1702 36.7909 76.2541 36.3098 76.3745 35.769C76.6161 34.6848 76.63 34.5613 76.5152 34.5171C76.3968 34.4714 75.9767 34.6785 75.7261 34.9061C75.5197 35.0935 75.4933 35.1517 75.3666 35.6988C75.2914 36.0235 75.2124 36.4091 75.1911 36.5557C75.1697 36.7023 75.1245 36.8306 75.0905 36.8408C74.924 36.8907 74.5072 36.9163 74.5072 36.8766ZM78.273 36.8336C78.254 36.784 78.352 36.2727 78.4908 35.6975C78.6295 35.1223 78.7301 34.6179 78.7144 34.5766C78.6925 34.5192 78.6434 34.5138 78.5048 34.5538C78.4053 34.5825 78.3175 34.606 78.3098 34.606C78.302 34.606 78.2957 34.5484 78.2957 34.4781C78.2957 34.3717 78.3442 34.3354 78.5839 34.2626C79.2345 34.0648 79.4354 34.0984 79.3697 34.3937C79.3539 34.4649 79.2407 34.9437 79.1183 35.4577C78.9958 35.9716 78.9093 36.4282 78.9261 36.4722C78.9495 36.5333 79.0157 36.5441 79.2064 36.5178C79.4411 36.4855 79.4551 36.4908 79.4387 36.6053C79.4049 36.8412 78.3544 37.047 78.273 36.8336ZM80.3445 36.8343C80.3078 36.7384 80.3523 36.4749 80.5669 35.5166C80.8041 34.457 80.8007 34.5508 80.602 34.5508C80.3606 34.5508 80.4008 34.3985 80.6812 34.2509C80.8425 34.166 80.942 34.0523 81.0707 33.8057C81.2113 33.5365 81.2723 33.4712 81.3971 33.4564C81.5637 33.4366 81.5649 33.4506 81.4473 34.0403L81.4115 34.2196H81.6988C81.9382 34.2196 81.9805 34.2342 81.9527 34.3069C81.9344 34.355 81.9194 34.4295 81.9194 34.4725C81.9194 34.5304 81.8425 34.5508 81.6243 34.5508H81.3292L81.1479 35.4789C81.0482 35.9894 80.982 36.4475 81.0009 36.4969C81.0289 36.5703 81.0681 36.5772 81.2161 36.5345C81.4678 36.462 81.4802 36.4657 81.4802 36.613C81.4802 36.7252 81.4349 36.7565 81.1609 36.8338C80.7398 36.9526 80.3897 36.9528 80.3445 36.8343V36.8343ZM82.6015 36.7961C82.4443 36.66 82.441 36.6462 82.441 36.1115C82.441 35.5913 82.4507 35.546 82.6484 35.144C82.891 34.6509 83.1693 34.3841 83.6168 34.2158C84.3961 33.9227 84.9559 34.4207 84.611 35.1002C84.416 35.4844 83.8958 35.7618 83.3666 35.7637C83.0488 35.7648 83.0274 35.7732 82.9932 35.91C82.9473 36.0938 83.0047 36.371 83.1145 36.4961C83.2393 36.6384 83.454 36.6146 83.837 36.416C84.1227 36.268 84.186 36.2523 84.2283 36.3195C84.3255 36.474 84.2773 36.5334 83.9097 36.7119C83.6268 36.8493 83.4472 36.897 83.1506 36.9134C82.7982 36.9329 82.747 36.922 82.6015 36.7961ZM83.7974 35.3105C84.1684 35.1009 84.2922 34.6886 84.035 34.5193C83.9336 34.4525 83.8611 34.4428 83.7468 34.4809C83.5532 34.5455 83.2766 34.9062 83.1623 35.2435L83.0741 35.5037L83.3261 35.469C83.4648 35.4499 83.6768 35.3786 83.7974 35.3105ZM0.779459 36.7736C0.789666 36.7203 0.847147 36.6677 0.907197 36.6566C1.07023 36.6266 1.21269 36.4812 1.32394 36.2314C1.4715 35.9001 1.92685 33.5961 1.93917 33.1184C1.94967 32.711 1.94807 32.7059 1.77344 32.5941C1.43276 32.376 1.5238 32.3432 2.47137 32.3432C3.22204 32.3432 3.34985 32.3555 3.34985 32.4274C3.34985 32.4769 3.28143 32.5253 3.18346 32.545C2.83331 32.6154 2.70041 32.9628 2.36983 34.672C2.06091 36.2692 2.06393 36.2383 2.20269 36.3778C2.30813 36.4838 2.36551 36.4929 2.79348 36.4712C3.36914 36.4421 3.57711 36.3447 3.77818 36.0101C3.93657 35.7466 3.94288 35.7421 4.05645 35.8144C4.11948 35.8546 4.11712 35.9057 4.04184 36.1309C3.99246 36.2787 3.89609 36.4989 3.82768 36.6203L3.7033 36.841L2.2321 36.8557C0.85448 36.8695 0.762083 36.8643 0.779459 36.7736ZM28.5514 36.7904C28.5514 36.7474 28.6441 36.6666 28.7573 36.611C28.9008 36.5406 28.9997 36.4346 29.0836 36.2616C29.2409 35.9371 29.7164 33.5868 29.7251 33.0907C29.7317 32.7158 29.7277 32.7042 29.5555 32.594C29.1871 32.3583 29.2704 32.3432 30.9435 32.3432C32.4784 32.3432 32.5113 32.3456 32.4777 32.4518C32.4589 32.5115 32.4126 32.7288 32.3749 32.9347C32.3168 33.2522 32.2881 33.3117 32.1859 33.3267C32.0878 33.341 32.0654 33.3172 32.0654 33.1989C32.0654 32.8325 31.8491 32.7296 31.0794 32.7296H30.549L30.3968 33.4332C30.313 33.8202 30.2325 34.1803 30.2178 34.2334C30.1939 34.3202 30.2405 34.3299 30.6753 34.3292C31.222 34.3283 31.3832 34.2696 31.5436 34.0132C31.6864 33.7851 31.8727 33.7667 31.8294 33.9851C31.8128 34.0685 31.7555 34.3666 31.7021 34.6473C31.6254 35.05 31.5853 35.1578 31.5125 35.1578C31.4543 35.1578 31.4083 35.0978 31.3879 34.9952C31.37 34.9057 31.2992 34.8022 31.23 34.7648C31.0983 34.6936 30.2348 34.6618 30.1709 34.7259C30.1339 34.7629 29.9718 35.5583 29.9007 36.0514C29.8665 36.2885 29.8753 36.3182 30.0041 36.4031C30.1173 36.4776 30.2387 36.491 30.6247 36.4715C31.1976 36.4425 31.4012 36.3507 31.6368 36.0146C31.7388 35.8692 31.8352 35.7855 31.8805 35.8029C31.9874 35.8441 31.9747 35.9428 31.8128 36.3322C31.5727 36.9097 31.7095 36.8686 30.0253 36.8686C28.7898 36.8686 28.5514 36.856 28.5514 36.7904ZM56.4433 36.7915C56.4433 36.7476 56.5236 36.6841 56.6218 36.6505C56.9684 36.5317 57.083 36.217 57.4297 34.4306C57.7284 32.8923 57.721 32.6462 57.3734 32.5353C57.3115 32.5156 57.2705 32.4705 57.2822 32.4351C57.2975 32.3887 57.7274 32.3667 58.8265 32.3562C60.3236 32.3417 60.349 32.3433 60.315 32.4509C60.296 32.5111 60.2496 32.7288 60.2119 32.9347C60.1538 33.2522 60.1252 33.3117 60.0229 33.3267C59.9212 33.3415 59.9024 33.3179 59.9024 33.1749C59.9024 32.8265 59.6346 32.7115 58.8901 32.7403L58.4544 32.7571L58.3018 33.4746C58.2178 33.8692 58.1483 34.2231 58.1473 34.261C58.1445 34.3629 58.9835 34.3538 59.1836 34.2498C59.2684 34.2057 59.369 34.094 59.4072 34.0015C59.4496 33.8984 59.5164 33.8333 59.5796 33.8333C59.7074 33.8333 59.7083 33.7933 59.5646 34.5369C59.464 35.0583 59.4286 35.1578 59.3441 35.1578C59.2833 35.1578 59.2435 35.1179 59.2435 35.0571C59.2435 34.7995 58.7302 34.6081 58.2558 34.6886L58.046 34.7242L57.9346 35.3411C57.7382 36.429 57.7465 36.5275 58.0448 36.6517C58.3731 36.7884 58.1836 36.8407 57.3036 36.8562C56.5823 36.869 56.4433 36.8585 56.4433 36.7915ZM24.2355 35.6044C23.9899 35.4923 23.7746 35.1458 23.7746 34.8627C23.7746 34.4243 24.1602 34.0322 24.5898 34.0337C25.1036 34.0356 25.4212 34.351 25.4216 34.8599C25.4221 35.5065 24.8322 35.8767 24.2355 35.6044ZM52.1815 35.6304C52.0873 35.5892 51.9399 35.4628 51.854 35.3496C51.7266 35.1817 51.6985 35.0909 51.7019 34.8572C51.7092 34.3501 52.0228 34.0383 52.5255 34.0383C52.7746 34.0383 52.8576 34.0655 53.0276 34.203C53.4067 34.5094 53.4656 35.0232 53.1631 35.3844C52.9089 35.6881 52.5303 35.783 52.1815 35.6304ZM19.3558 33.6688C19.2478 33.5489 19.24 33.5615 19.864 32.8473L20.0745 32.6064L20.3872 32.6768C20.5592 32.7155 20.6999 32.7638 20.6999 32.7842C20.6999 32.8214 19.5243 33.7781 19.4786 33.7781C19.4651 33.7781 19.4099 33.7289 19.3558 33.6688ZM47.289 33.6688L47.1672 33.5696L47.5817 33.0944C47.8097 32.833 48.0171 32.6192 48.0428 32.6192C48.1767 32.6192 48.6473 32.7548 48.6344 32.7897C48.6208 32.8264 47.5978 33.6532 47.466 33.7341C47.4357 33.7527 47.356 33.7233 47.289 33.6688ZM83.7882 33.6693L83.6557 33.5688L84.0846 33.094C84.3205 32.8329 84.5333 32.6192 84.5574 32.6192C84.6661 32.6192 85.1586 32.7518 85.1562 32.7804C85.1537 32.8103 84.117 33.6511 83.9822 33.7325C83.9484 33.753 83.8611 33.7245 83.7882 33.6693ZM5.43054 33.3861C5.20741 33.1618 5.42517 32.7296 5.76128 32.7296C5.99503 32.7296 6.11708 32.8528 6.11708 33.0889C6.11708 33.4572 5.68667 33.6435 5.43054 33.3861ZM42.4836 33.4254C42.3487 33.3224 42.3567 32.9813 42.4974 32.8399C42.7238 32.6123 43.1562 32.7609 43.1562 33.0663C43.1562 33.3971 42.7387 33.62 42.4836 33.4254ZM78.9488 33.3861C78.7218 33.1579 78.9444 32.7296 79.29 32.7296C79.6349 32.7296 79.7827 33.1162 79.5335 33.3667C79.3644 33.5367 79.1072 33.5452 78.9488 33.3861ZM30.8462 31.8086C30.7624 31.7146 30.7824 31.6808 31.1796 31.2466L31.6021 30.7847L31.9161 30.8553C32.0888 30.8941 32.2288 30.9406 32.2273 30.9585C32.2229 31.011 31.1203 31.86 31.0235 31.8854C30.9751 31.8981 30.8953 31.8635 30.8462 31.8086Z" fill="black"/>
        <path d="M49.1 28.6976L49.2281 28.3646C49.4451 27.7631 49.6703 27.3041 49.9952 26.8004C50.3394 26.2669 51.0969 25.4811 51.4121 25.3307C51.7994 25.1458 52.2809 25.0807 52.8763 25.1327C53.3877 25.1774 54.9587 25.4356 55.5926 25.5792C56.0751 25.6884 56.7816 25.6989 57.114 25.6017C57.7545 25.4144 58.134 25.0524 58.3141 24.4567C58.4522 23.9998 58.4509 23.5845 58.3104 23.3076C58.1218 22.9356 58.1539 22.8388 58.6124 22.3981C58.8389 22.1804 59.0245 21.9792 59.0249 21.9509C59.0268 21.8035 58.713 21.2119 58.6322 21.2105C58.5827 21.2097 58.4849 21.1624 58.4149 21.1054L58.2876 21.0017L58.5598 20.8618C58.9315 20.6708 59.2072 20.3738 59.2072 20.1643C59.2072 20.0738 59.1289 19.852 59.0332 19.6714C58.8495 19.3247 58.8004 18.9935 58.9038 18.7991C58.9721 18.6707 59.09 18.6167 59.6688 18.4485C60.1552 18.3072 60.3311 18.164 60.4004 17.8526C60.4597 17.5862 60.4306 17.4149 60.2714 17.0949C60.1418 16.8343 59.2979 15.5347 59.0521 15.2172C58.7217 14.7906 58.3193 14.0535 58.2003 13.6571C58.083 13.2663 58.0822 13.2442 58.1678 12.7391C58.3488 11.6712 58.243 10.7859 57.728 9.05972C57.3454 7.77681 57.2426 7.46537 57.1228 7.22535C56.9061 6.79142 56.9351 6.68983 57.3795 6.32407C57.5923 6.14899 57.79 5.96143 57.8188 5.90725C57.953 5.65501 57.803 5.16897 57.5487 5.03207C57.3873 4.94518 57.2974 5.00484 57.1335 5.30768C57.0094 5.53714 56.9607 5.58059 56.8278 5.58059C56.6115 5.58059 56.5736 5.48939 56.7117 5.30146C56.8728 5.08235 56.86 5.04721 56.607 5.01308C56.4176 4.98753 56.3175 4.91315 55.907 4.49289C55.3565 3.92946 54.9868 3.66981 54.2497 3.32915C53.9117 3.17298 53.794 3.09906 53.918 3.12087C54.0237 3.13945 54.3974 3.16915 54.7485 3.18687C55.7671 3.23826 56.0147 3.10299 56.2521 2.36539C56.4133 1.8646 56.4906 1.63298 56.1207 1.28334L54.7632 0H85.2222V28.6976H49.1Z" fill="#E2011C"/>
        <path d="M23.126 28.6976C22.905 28.6742 22.7133 28.6641 22.7001 28.6508C22.6769 28.6274 22.9265 28.4661 24.07 27.7657C24.4367 27.541 24.5876 27.4206 24.5366 27.3932C24.4952 27.371 24.1751 27.3357 23.8252 27.3148C23.3055 27.2838 23.1548 27.2927 23.0017 27.3634C22.8986 27.4111 22.4871 27.5363 22.0873 27.6418C21.0957 27.9033 20.7621 28.0829 20.4437 28.5263L20.3247 28.6976H0.777771V0H39.5596L38.8081 0.49303C38.3945 0.69947 37.9137 0.986189 37.7398 1.13018C37.1499 1.61864 36.3556 2.72982 36.1572 3.34401C36.0843 3.56976 36.0181 3.65437 35.7945 3.80782C35.4531 4.04198 35.0442 4.48853 34.7057 4.9969C34.246 5.6872 33.3697 7.24291 33.1975 7.67447C32.9305 8.34397 32.9547 8.85376 33.3489 10.8545C33.5224 11.7353 33.7102 12.63 33.7662 12.8426C33.8221 13.0552 33.8834 13.4155 33.9023 13.6433C33.936 14.0501 33.9623 14.1381 34.1992 14.6374C34.2641 14.7741 34.3171 14.9292 34.317 14.9821C34.3169 15.035 34.3663 15.1093 34.4267 15.1472C34.4893 15.1866 34.5365 15.276 34.5365 15.3554C34.5365 15.4511 34.6615 15.6326 34.9362 15.9358C35.5645 16.6293 36.0189 17.2794 36.0189 17.485C36.0189 17.6539 35.7725 17.6976 35.3754 17.599C34.9113 17.4838 34.5317 17.235 33.9462 16.6624C33.6971 16.4187 33.4933 16.2548 33.4933 16.2983C33.4933 16.3417 33.6641 16.5683 33.8728 16.8018C34.2881 17.2661 34.3532 17.3928 34.2634 17.5615C34.1848 17.7091 33.9937 17.7521 33.7352 17.6803C33.4369 17.5975 33.262 17.713 33.3112 17.9604C33.3414 18.1122 33.3331 18.1301 33.2478 18.0972C33.0792 18.0321 32.7101 17.9575 32.3782 17.9215C32.0733 17.8884 32.0508 17.8749 31.8662 17.6166C31.7264 17.4208 31.6176 17.3306 31.4714 17.2893C30.9266 17.1355 29.5715 16.8985 28.6616 16.7978C27.0623 16.6209 26.6771 16.607 25.9109 16.6986C25.3225 16.769 25.1625 16.8103 24.8402 16.975C24.2698 17.2665 23.2809 18.1801 23.2809 18.4156C23.2809 18.5261 23.4987 18.4871 23.7476 18.3321C24.5029 17.8617 27.0902 17.1978 28.3596 17.1486C28.9887 17.1242 28.9546 17.1545 28.1998 17.2905C27.9911 17.3281 27.497 17.4554 27.1017 17.5733C26.7064 17.6912 26.0248 17.8729 25.5869 17.9771C25.149 18.0813 24.6549 18.2156 24.4888 18.2755L24.1868 18.3846L24.6535 18.3897C27.0315 18.4158 29.7422 19.1746 30.8454 20.123C31.3201 20.531 31.4939 20.5806 32.1921 20.5067C33.149 20.4054 34.3875 19.9462 34.9306 19.4914C35.1664 19.294 35.3602 19.2155 35.3599 19.3176C35.3593 19.498 35.0471 20.4677 34.9121 20.7083C34.7617 20.9765 34.7531 21.0151 34.8315 21.0727C34.8797 21.1082 34.9053 21.1511 34.8884 21.1681C34.8714 21.1851 34.9089 21.2153 34.9716 21.2354C35.1518 21.2929 35.1064 21.3485 34.8188 21.4226C34.5385 21.4949 34.3168 21.6214 34.3168 21.7092C34.3168 21.7379 34.3554 21.7613 34.4024 21.7613C34.5435 21.7613 34.4382 21.8604 34.254 21.9011C34.1279 21.929 34.1026 21.9518 34.1585 21.9874C34.2133 22.0223 34.2154 22.036 34.1659 22.0366C34.1281 22.037 34.0972 22.0935 34.0972 22.162C34.0972 22.2473 34.0453 22.3097 33.9325 22.3599C33.6576 22.4823 33.7347 22.5484 34.1109 22.513C34.2997 22.4952 34.417 22.4954 34.3717 22.5134C34.3265 22.5314 34.0176 22.6719 33.6854 22.8256C33.3533 22.9794 32.9209 23.1619 32.7246 23.2312C32.5024 23.3097 32.3605 23.3924 32.3485 23.4502C32.3294 23.5432 32.4325 23.5401 32.692 23.44C32.7401 23.4214 32.7789 23.4275 32.7782 23.4535C32.7774 23.4796 32.2056 23.8115 31.5074 24.1912C30.8092 24.5708 30.1559 24.9622 30.0556 25.061C29.9552 25.1597 29.8269 25.2404 29.7704 25.2404C29.7134 25.2404 29.6391 25.3032 29.6038 25.3811C29.4972 25.6165 29.5192 25.6451 29.7734 25.6012C30.1511 25.536 30.3242 25.5396 30.3493 25.6132C30.3629 25.653 30.3272 25.6822 30.2652 25.6822C30.2059 25.6822 30.1279 25.718 30.0918 25.7618C30.0557 25.8055 29.9604 25.849 29.88 25.8584C29.7864 25.8694 29.6939 25.9388 29.6232 26.0513C29.5624 26.148 29.4632 26.2398 29.4028 26.2554C29.3424 26.271 29.4289 26.2736 29.595 26.2612C32.0646 26.0765 32.5247 25.9845 33.5207 25.4769C34.3704 25.0438 35.2524 24.4 35.8799 23.7549C36.0602 23.5696 36.2269 23.418 36.2505 23.418C36.3358 23.418 36.2896 23.7278 36.1636 23.9999C35.9456 24.4708 35.4881 24.9046 34.5478 25.5321C34.0735 25.8486 33.5619 26.1467 33.4109 26.1946C32.9392 26.344 32.1776 26.5031 31.3792 26.6192C28.7781 26.9972 27.7828 27.2839 26.7968 27.9392C26.6318 28.0488 26.4585 28.132 26.4118 28.1241C26.3651 28.1161 26.2407 28.1837 26.1354 28.2743C25.839 28.529 26.0537 28.4859 26.6683 28.1673C27.2982 27.8408 27.5934 27.7894 27.0968 28.0927C26.4879 28.4645 26.0237 28.6976 25.5692 28.6976H23.126ZM19.8951 25.4964C19.9938 25.4549 20.3204 25.271 20.6208 25.0877C20.9212 24.9044 21.2782 24.7037 21.4141 24.6417C21.55 24.5798 21.933 24.4058 22.2652 24.2551C22.9614 23.9393 23.9831 23.6413 24.0419 23.7369C24.0625 23.7705 24.2148 23.8075 24.3802 23.8191C24.6117 23.8354 24.6525 23.8503 24.5574 23.8841C24.4895 23.9082 24.4339 23.9499 24.4339 23.9767C24.4339 24.0766 24.9477 24.0467 25.1641 23.9341C25.2489 23.89 25.4405 23.8394 25.5899 23.8216C25.7756 23.7994 25.8614 23.7639 25.8614 23.7092C25.8614 23.6468 25.9086 23.6372 26.0763 23.6657C26.3071 23.7049 26.8034 23.6106 28.14 23.2733C29.0452 23.045 29.7308 22.8151 30.3329 22.5382L30.7689 22.3376L30.3329 22.0568C29.2704 21.3724 28.2034 20.9521 25.8614 20.2954C25.4538 20.1811 25.0955 20.0629 25.0653 20.0327C25.0289 19.9963 25.0474 19.9912 25.1202 20.0175C25.3541 20.1018 25.532 20.118 25.532 20.0549C25.532 19.973 25.3552 19.9071 25.0078 19.8593C24.69 19.8156 24.4849 19.7202 24.7057 19.7189C25.0473 19.7167 24.46 19.499 23.8025 19.384C23.3157 19.2989 23.2877 19.2807 23.491 19.1816C23.6682 19.0953 23.8588 18.7687 23.8086 18.6373C23.7661 18.5257 23.713 18.5372 23.4497 18.7151C22.9421 19.058 22.4765 19.6195 22.2148 20.2043C22.0656 20.538 22.1172 20.5686 22.8855 20.6016C23.5146 20.6286 23.5245 20.6311 23.3633 20.7182C23.2727 20.7671 23.0909 20.8237 22.9594 20.844C22.5128 20.9129 22.2647 21.126 22.4861 21.2507C22.5519 21.2877 22.5258 21.3189 22.3643 21.3963C22.1833 21.4832 22.1706 21.5015 22.2575 21.5505C22.3118 21.581 22.4697 21.597 22.6084 21.5859C22.8012 21.5705 22.8892 21.5913 22.982 21.6745L23.1033 21.7832L22.8598 21.9386C22.7258 22.024 22.5743 22.1736 22.523 22.271C22.4718 22.3684 22.2878 22.6001 22.1142 22.7859C21.9405 22.9717 21.7985 23.1638 21.7985 23.2129C21.7985 23.262 21.5452 23.5059 21.2357 23.755C20.4033 24.4247 20.0415 24.7928 20.0415 24.97C20.0415 25.0638 19.9945 25.1483 19.9119 25.2027C19.6521 25.3739 19.5164 25.5718 19.6589 25.5718C19.6901 25.5718 19.7964 25.5378 19.8951 25.4964ZM26.3178 24.8511C26.5236 24.8234 26.7618 24.7593 26.8472 24.7085L27.0026 24.6162L26.7376 24.4834L26.4727 24.3506L26.2082 24.4584C26.0628 24.5176 25.8614 24.5975 25.7607 24.6358C25.3556 24.79 25.3027 24.9972 25.683 24.9403C25.8264 24.9189 26.1121 24.8787 26.3178 24.8511ZM17.0217 22.3398C18.2453 21.0531 19.1087 20.2897 20.2047 19.5258C20.5771 19.2662 20.8395 19.1161 20.8524 19.1552C20.888 19.2626 21.0475 19.231 21.3073 19.0651C21.6058 18.8746 21.7551 18.6817 22.1276 18.0054C22.5142 17.3039 22.6602 17.1286 23.2182 16.6964C23.4792 16.4943 23.8635 16.1925 24.0722 16.0258C24.373 15.7855 24.4452 15.7475 24.4205 15.8427C24.4013 15.9164 24.4146 15.9628 24.4548 15.9628C24.5795 15.9628 25.1672 15.7104 25.1879 15.648C25.2203 15.5504 24.6231 15.4496 24.1814 15.4781C23.8423 15.5 23.7222 15.5396 23.3015 15.7681C22.3127 16.3049 21.5985 16.884 20.2346 18.2546C19.2531 19.2409 18.4799 19.9022 18.0891 20.0896C17.9618 20.1507 17.866 20.2786 17.7116 20.5936C17.4115 21.2058 16.8758 22.0843 16.3672 22.7982C15.8866 23.4729 15.7834 23.7063 16.1569 23.2739C16.2853 23.1254 16.6744 22.705 17.0217 22.3398ZM29.2656 28.3815C30.735 28.0743 30.8973 28.0514 31.9285 28.006C33.0864 27.955 33.234 27.9247 33.9306 27.5954C34.1537 27.4899 34.2413 27.4708 34.2723 27.5205C34.3263 27.6072 34.7041 27.4002 35.4424 26.8796C35.7444 26.6666 36.1714 26.3945 36.3914 26.2748C36.7228 26.0945 36.8242 26.0634 36.9836 26.0935C37.1539 26.1256 37.2043 26.1048 37.4216 25.9123C38.0242 25.3789 38.5386 25.1323 39.0524 25.1306C39.2052 25.1301 39.2583 25.1529 39.2583 25.2187C39.2583 25.2749 39.2885 25.2958 39.3407 25.2757C39.4937 25.2166 39.4244 25.2842 39.0308 25.5777C38.575 25.9175 38.6198 26.0196 39.0831 25.697C39.5317 25.3847 39.5328 25.3843 39.5328 25.5105C39.5328 25.5825 39.364 25.7632 39.0524 26.0246C38.3435 26.6195 37.8416 27.1114 37.0774 27.9602L36.3938 28.6976H27.7008L29.2656 28.3815ZM29.2793 17.1396C29.3321 17.1257 29.4186 17.1257 29.4715 17.1396C29.5243 17.1535 29.4811 17.1649 29.3754 17.1649C29.2697 17.1649 29.2264 17.1535 29.2793 17.1396Z" fill="#003189"/>
        <path d="M54.8916 15.0395C54.6518 15.0031 54.7756 14.9135 55.0657 14.9135C55.3568 14.9135 55.5102 14.8011 55.5102 14.5879C55.5102 14.4876 55.4886 14.4712 55.3956 14.5009C55.3153 14.5265 55.2582 14.5049 55.2054 14.4291C55.1561 14.3584 55.0369 14.3084 54.8616 14.285C54.5484 14.2432 54.0413 13.9391 54.1322 13.8476C54.1633 13.8164 54.3245 13.7795 54.4905 13.7656C54.7766 13.7418 54.7955 13.7307 54.8536 13.5538C54.897 13.4214 54.9574 13.3571 55.0615 13.3325C55.1422 13.3134 55.27 13.2405 55.3455 13.1706C55.421 13.1006 55.6681 12.9218 55.8946 12.7732C56.2753 12.5234 56.5112 12.2571 56.4269 12.1723C56.3381 12.0829 55.5136 11.9857 55.1259 12.0188C54.6755 12.0573 53.8994 12.2219 53.5749 12.3477C53.2417 12.4769 53.3391 12.3644 53.7968 12.0914C54.4148 11.7228 55.6043 11.3792 56.2621 11.3792C56.5174 11.3792 57.3714 11.582 57.4731 11.6668C57.6724 11.8329 57.455 12.4159 57.0854 12.7068L56.9311 12.8283L57.058 12.9644L57.1849 13.1005L57.0552 13.2062C56.9839 13.2644 56.8863 13.312 56.8382 13.312C56.7902 13.312 56.6712 13.3897 56.5738 13.4846C56.4239 13.6307 56.4045 13.6779 56.4476 13.792C56.481 13.8803 56.4777 13.9658 56.4381 14.0402C56.4012 14.1097 56.3919 14.2678 56.4143 14.4477C56.4599 14.8151 56.394 14.9467 56.1273 15.0212C55.9295 15.0765 55.2052 15.0872 54.8916 15.0395Z" fill="#7F7F7F"/>
    </g>
    <defs>
    <clipPath id="clip0">
    <rect x="0.777771" width="84.4444" height="50" fill="white"/>
    </clipPath>
    </defs>
</svg>
