<svg id="Capa_1" data-name="Capa 1" xmlns="http://www.w3.org/2000/svg" viewBox="0 0 499.99 612"><title>Linkedin</title><path id="LinkedIn_alt_" data-name="LinkedIn (alt)" d="M463.07,56H36.94C16.54,56,0,72,0,91.82V520.17C0,540,16.54,556,36.94,556H463.07C483.47,556,500,540,500,520.17V91.82C500,72,483.47,56,463.07,56ZM151.58,474.54H76V248.79h75.54ZM113.82,218h-.51c-25.33,0-41.76-17.32-41.76-39,0-22.13,16.91-39,42.74-39s41.74,16.85,42.24,39C156.53,200.63,140.14,218,113.82,218ZM423.9,474.54H348.38V353.76c0-30.35-10.94-51.06-38.25-51.06-20.9,0-33.3,14-38.75,27.46-2,4.82-2.51,11.55-2.51,18.28V474.53H193.36s1-204.57,0-225.74h75.52v32c10-15.38,27.94-37.31,68-37.31,49.71,0,87,32.24,87,101.61V474.54Zm-155.51-193c.13-.21.31-.47.49-.71v.71Z"/></svg>