<svg id="Capa_1" data-name="Capa 1" xmlns="http://www.w3.org/2000/svg" viewBox="0 0 629.81 612"><title>medium</title><path d="M74.68,158a24.37,24.37,0,0,0-7.94-20.58L7.94,66.58V56H190.53L331.66,365.52,455.74,56H629.81V66.58l-50.28,48.21a14.68,14.68,0,0,0-5.59,14.11V483.1a14.68,14.68,0,0,0,5.59,14.11l49.1,48.21V556h-247V545.42L432.51,496c5-5,5-6.47,5-14.11V195.62L296.09,554.82H277L112.32,195.62V436.36A33.25,33.25,0,0,0,121.43,464l66.16,80.24v10.58H0V544.24L66.16,464a32,32,0,0,0,8.52-27.64Z"/></svg>