<svg id="Capa_1" data-name="Capa 1" xmlns="http://www.w3.org/2000/svg" viewBox="0 0 615.55 612"><defs><style>.cls-1{fill:#010002;}</style></defs><title>twitter</title><path class="cls-1" d="M615.55,115.16A252.21,252.21,0,0,1,543,135a126.74,126.74,0,0,0,55.5-69.81,254.51,254.51,0,0,1-80.23,30.66A126.37,126.37,0,0,0,303.14,211,358.49,358.49,0,0,1,42.89,79.08,126.41,126.41,0,0,0,82,247.63a126.29,126.29,0,0,1-57.2-15.85v1.58A126.4,126.4,0,0,0,126.05,357.18a128.17,128.17,0,0,1-33.27,4.42A121,121,0,0,1,69,359.25,126.32,126.32,0,0,0,186.94,447a253.35,253.35,0,0,1-156.82,54A269.8,269.8,0,0,1,0,499.19,356.91,356.91,0,0,0,193.55,556c232.29,0,359.26-192.4,359.26-359.26l-.42-16.35A252.1,252.1,0,0,0,615.55,115.16Z"/></svg>